<svg width="105" height="32" viewBox="0 0 105 32" fill="none" xmlns="http://www.w3.org/2000/svg">
<path fill-rule="evenodd" clip-rule="evenodd" d="M18 6C19.0609 6 20.0783 6.42143 20.8284 7.17157C21.5786 7.92172 22 8.93913 22 10V22C22 23.0609 21.5786 24.0783 20.8284 24.8284C20.0783 25.5786 19.0609 26 18 26H6C4.93913 26 3.92172 25.5786 3.17157 24.8284C2.42143 24.0783 2 23.0609 2 22V10C2 8.93913 2.42143 7.92172 3.17157 7.17157C3.92172 6.42143 4.93913 6 6 6H18ZM15.4 16.669L14.061 18.176L13.506 16.927C13.438 16.7744 13.3328 16.6413 13.2001 16.5398C13.0674 16.4383 12.9113 16.3717 12.7462 16.3461C12.5812 16.3204 12.4123 16.3365 12.255 16.3929C12.0978 16.4493 11.9571 16.5443 11.846 16.669L10.506 18.176L9.951 16.927C9.88303 16.7742 9.77783 16.6409 9.64503 16.5393C9.51223 16.4377 9.35606 16.371 9.19082 16.3453C9.02557 16.3196 8.85653 16.3358 8.69916 16.3924C8.54179 16.4489 8.40111 16.544 8.29 16.669L5.92 19.336C5.82764 19.4332 5.75577 19.548 5.70868 19.6736C5.6616 19.7992 5.64025 19.9329 5.64591 20.0669C5.65157 20.2009 5.68412 20.3324 5.74162 20.4535C5.79913 20.5747 5.88042 20.683 5.98065 20.7721C6.08088 20.8612 6.19801 20.9293 6.32507 20.9722C6.45213 21.0151 6.58652 21.032 6.72025 21.0219C6.85398 21.0118 6.98431 20.9749 7.10349 20.9134C7.22267 20.852 7.32827 20.7671 7.414 20.664L8.754 19.158L9.308 20.406C9.37591 20.559 9.48113 20.6925 9.61401 20.7942C9.7469 20.896 9.90321 20.9628 10.0686 20.9885C10.234 21.0141 10.4032 20.9979 10.5607 20.9412C10.7182 20.8845 10.8589 20.7892 10.97 20.664L12.309 19.158L12.864 20.406C12.932 20.5588 13.0372 20.6921 13.17 20.7937C13.3028 20.8953 13.4589 20.962 13.6242 20.9877C13.7894 21.0134 13.9585 20.9972 14.1158 20.9406C14.2732 20.8841 14.4139 20.789 14.525 20.664L15.865 19.158L16.419 20.406C16.5267 20.6484 16.7262 20.8381 16.9738 20.9334C17.2213 21.0286 17.4966 21.0217 17.739 20.914C17.9814 20.8063 18.1711 20.6068 18.2664 20.3592C18.3616 20.1117 18.3547 19.8364 18.247 19.594L17.062 16.927C16.994 16.7742 16.8888 16.6409 16.756 16.5393C16.6232 16.4377 16.4671 16.371 16.3018 16.3453C16.1366 16.3196 15.9675 16.3358 15.8102 16.3924C15.6528 16.4489 15.5121 16.544 15.401 16.669M16.303 11.012C16.1587 10.9895 16.0112 10.9989 15.8709 11.0395C15.7307 11.0801 15.601 11.1509 15.491 11.247L15.401 11.336L14.062 12.842L13.507 11.594C13.4434 11.451 13.3471 11.325 13.2259 11.226C13.1046 11.127 12.9619 11.0579 12.8091 11.0241C12.6562 10.9903 12.4976 10.9929 12.346 11.0316C12.1944 11.0704 12.0539 11.1441 11.936 11.247L11.846 11.336L10.506 12.842L9.952 11.594C9.88841 11.4508 9.79209 11.3246 9.67079 11.2255C9.54949 11.1264 9.4066 11.0572 9.25365 11.0234C9.10069 10.9897 8.94194 10.9923 8.79019 11.0311C8.63844 11.07 8.49794 11.1439 8.38 11.247L8.29 11.336L5.92 14.002C5.74884 14.1918 5.65684 14.4399 5.66288 14.6954C5.66892 14.9509 5.77256 15.1944 5.9525 15.3758C6.13244 15.5573 6.37503 15.663 6.63046 15.6712C6.88589 15.6794 7.13477 15.5895 7.326 15.42L7.416 15.331L8.754 13.824L9.309 15.073C9.37258 15.2162 9.46891 15.3424 9.59021 15.4415C9.71151 15.5406 9.8544 15.6098 10.0074 15.6436C10.1603 15.6773 10.3191 15.6747 10.4708 15.6359C10.6226 15.597 10.7631 15.5231 10.881 15.42L10.971 15.331L12.31 13.824L12.865 15.073C12.9286 15.216 13.0249 15.342 13.1461 15.441C13.2674 15.54 13.4101 15.6091 13.5629 15.6429C13.7158 15.6767 13.8744 15.6741 14.026 15.6354C14.1776 15.5966 14.3181 15.5229 14.436 15.42L14.526 15.331L15.866 13.824L16.42 15.073C16.5217 15.3091 16.7104 15.4969 16.9469 15.5976C17.1835 15.6982 17.4497 15.7039 17.6903 15.6134C17.9309 15.523 18.1275 15.3433 18.2391 15.1118C18.3508 14.8803 18.369 14.6146 18.29 14.37L18.248 14.26L17.063 11.594C16.9951 11.4412 16.8899 11.3078 16.7572 11.2062C16.6244 11.1045 16.4682 11.0377 16.303 11.012Z" fill="black"/>
<path d="M35.9 23.26C34.8733 23.26 33.9933 23.02 33.26 22.54C32.5267 22.06 31.9667 21.42 31.58 20.62C31.1933 19.8067 31 18.9 31 17.9C31 16.8867 31.2133 15.98 31.64 15.18C32.0667 14.3667 32.6733 13.7267 33.46 13.26C34.26 12.7933 35.2067 12.56 36.3 12.56C37.3533 12.56 38.26 12.7933 39.02 13.26C39.7933 13.7267 40.3867 14.3533 40.8 15.14C41.2267 15.9267 41.44 16.8133 41.44 17.8V23H40.06V20.72H40C39.8133 21.12 39.5333 21.52 39.16 21.92C38.7867 22.3067 38.3267 22.6267 37.78 22.88C37.2467 23.1333 36.62 23.26 35.9 23.26ZM36.2 22.06C36.9467 22.06 37.6067 21.88 38.18 21.52C38.7533 21.1467 39.2 20.6467 39.52 20.02C39.8533 19.38 40.02 18.66 40.02 17.86C40.02 17.0733 39.8667 16.3733 39.56 15.76C39.2533 15.1467 38.82 14.66 38.26 14.3C37.7 13.94 37.0333 13.76 36.26 13.76C35.46 13.76 34.7733 13.9467 34.2 14.32C33.6267 14.68 33.1867 15.18 32.88 15.82C32.5733 16.4467 32.42 17.16 32.42 17.96C32.42 18.7067 32.5667 19.3933 32.86 20.02C33.1533 20.6467 33.58 21.1467 34.14 21.52C34.7133 21.88 35.4 22.06 36.2 22.06ZM48.5883 27.06V22.98H49.9883V27.06H48.5883ZM49.2883 23.26C48.2616 23.26 47.3483 23.0267 46.5483 22.56C45.7483 22.08 45.1216 21.4333 44.6683 20.62C44.2149 19.8067 43.9883 18.9 43.9883 17.9C43.9883 16.9 44.2149 15.9933 44.6683 15.18C45.1216 14.3667 45.7483 13.7267 46.5483 13.26C47.3483 12.78 48.2616 12.54 49.2883 12.54C50.3149 12.54 51.2216 12.78 52.0083 13.26C52.8083 13.7267 53.4349 14.3667 53.8883 15.18C54.3549 15.98 54.5883 16.8867 54.5883 17.9C54.5883 18.9 54.3549 19.8067 53.8883 20.62C53.4349 21.4333 52.8083 22.08 52.0083 22.56C51.2216 23.0267 50.3149 23.26 49.2883 23.26ZM49.2883 22.04C50.0483 22.04 50.7216 21.86 51.3083 21.5C51.8949 21.1267 52.3483 20.6267 52.6683 20C53.0016 19.3733 53.1683 18.6733 53.1683 17.9C53.1683 17.1267 53.0016 16.4267 52.6683 15.8C52.3483 15.1733 51.8949 14.68 51.3083 14.32C50.7216 13.9467 50.0483 13.76 49.2883 13.76C48.5149 13.76 47.8349 13.9467 47.2483 14.32C46.6749 14.68 46.2216 15.1733 45.8883 15.8C45.5683 16.4267 45.4083 17.1267 45.4083 17.9C45.4083 18.6733 45.5683 19.3733 45.8883 20C46.2216 20.6267 46.6749 21.1267 47.2483 21.5C47.8349 21.86 48.5149 22.04 49.2883 22.04ZM61.7859 23.26C60.9326 23.26 60.1526 23.08 59.4459 22.72C58.7393 22.3467 58.1726 21.82 57.7459 21.14C57.3326 20.46 57.1259 19.66 57.1259 18.74V12.8H58.5259V18.68C58.5259 19.3867 58.6793 19.9933 58.9859 20.5C59.3059 21.0067 59.7126 21.3933 60.2059 21.66C60.6993 21.9133 61.2259 22.04 61.7859 22.04C62.3593 22.04 62.8926 21.9067 63.3859 21.64C63.8926 21.3733 64.2993 20.9933 64.6059 20.5C64.9126 19.9933 65.0659 19.3867 65.0659 18.68V12.8H66.4659V18.74C66.4659 19.66 66.2593 20.46 65.8459 21.14C65.4326 21.82 64.8726 22.3467 64.1659 22.72C63.4593 23.08 62.6659 23.26 61.7859 23.26ZM73.9078 23.26C72.8811 23.26 72.0011 23.02 71.2678 22.54C70.5345 22.06 69.9745 21.42 69.5878 20.62C69.2011 19.8067 69.0078 18.9 69.0078 17.9C69.0078 16.8867 69.2211 15.98 69.6478 15.18C70.0745 14.3667 70.6811 13.7267 71.4678 13.26C72.2678 12.7933 73.2145 12.56 74.3078 12.56C75.3611 12.56 76.2678 12.7933 77.0278 13.26C77.8011 13.7267 78.3945 14.3533 78.8078 15.14C79.2345 15.9267 79.4478 16.8133 79.4478 17.8V23H78.0678V20.72H78.0078C77.8211 21.12 77.5411 21.52 77.1678 21.92C76.7945 22.3067 76.3345 22.6267 75.7878 22.88C75.2545 23.1333 74.6278 23.26 73.9078 23.26ZM74.2078 22.06C74.9545 22.06 75.6145 21.88 76.1878 21.52C76.7611 21.1467 77.2078 20.6467 77.5278 20.02C77.8611 19.38 78.0278 18.66 78.0278 17.86C78.0278 17.0733 77.8745 16.3733 77.5678 15.76C77.2611 15.1467 76.8278 14.66 76.2678 14.3C75.7078 13.94 75.0411 13.76 74.2678 13.76C73.4678 13.76 72.7811 13.9467 72.2078 14.32C71.6345 14.68 71.1945 15.18 70.8878 15.82C70.5811 16.4467 70.4278 17.16 70.4278 17.96C70.4278 18.7067 70.5745 19.3933 70.8678 20.02C71.1611 20.6467 71.5878 21.1467 72.1478 21.52C72.7211 21.88 73.4078 22.06 74.2078 22.06ZM82.4961 23V15.7C82.4961 14.7933 82.7494 14.0867 83.2561 13.58C83.7761 13.06 84.4894 12.8 85.3961 12.8H87.1561V14.02H85.6761C85.0894 14.02 84.6428 14.18 84.3361 14.5C84.0428 14.82 83.8961 15.2733 83.8961 15.86V23H82.4961ZM88.9619 23V12.8H90.3619V23H88.9619ZM89.6619 10.96C89.3952 10.96 89.1619 10.86 88.9619 10.66C88.7619 10.46 88.6619 10.2267 88.6619 9.96C88.6619 9.68 88.7619 9.44667 88.9619 9.26C89.1619 9.06 89.3952 8.96 89.6619 8.96C89.9419 8.96 90.1752 9.06 90.3619 9.26C90.5619 9.44667 90.6619 9.68 90.6619 9.96C90.6619 10.2267 90.5619 10.46 90.3619 10.66C90.1752 10.86 89.9419 10.96 89.6619 10.96ZM98.1945 23.26C97.1679 23.26 96.2545 23.0267 95.4545 22.56C94.6545 22.08 94.0279 21.4333 93.5745 20.62C93.1212 19.8067 92.8945 18.9 92.8945 17.9C92.8945 16.9 93.1212 15.9933 93.5745 15.18C94.0279 14.3667 94.6545 13.7267 95.4545 13.26C96.2545 12.78 97.1679 12.54 98.1945 12.54C99.2212 12.54 100.128 12.78 100.915 13.26C101.715 13.7267 102.341 14.3667 102.795 15.18C103.261 15.98 103.495 16.8867 103.495 17.9C103.495 18.9 103.261 19.8067 102.795 20.62C102.341 21.4333 101.715 22.08 100.915 22.56C100.128 23.0267 99.2212 23.26 98.1945 23.26ZM98.1945 22.04C98.9545 22.04 99.6279 21.86 100.215 21.5C100.801 21.1267 101.255 20.6267 101.575 20C101.908 19.3733 102.075 18.6733 102.075 17.9C102.075 17.1267 101.908 16.4267 101.575 15.8C101.255 15.1733 100.801 14.68 100.215 14.32C99.6279 13.9467 98.9545 13.76 98.1945 13.76C97.4212 13.76 96.7412 13.9467 96.1545 14.32C95.5812 14.68 95.1279 15.1733 94.7945 15.8C94.4745 16.4267 94.3145 17.1267 94.3145 17.9C94.3145 18.6733 94.4745 19.3733 94.7945 20C95.1279 20.6267 95.5812 21.1267 96.1545 21.5C96.7412 21.86 97.4212 22.04 98.1945 22.04Z" fill="black"/>
</svg>
